<mxfile host="app.diagrams.net" modified="2020-12-03T19:46:12.458Z" agent="5.0 (Windows NT 10.0; Win64; x64) AppleWebKit/537.36 (KHTML, like Gecko) Chrome/84.0.4147.89 Safari/537.36" etag="q_FszL_3h39OrN-QBHq8" version="13.10.7" type="github">
  <diagram id="oKktQ7i2lsQa1mrW154o" name="Page-1">
    <mxGraphModel dx="782" dy="437" grid="1" gridSize="10" guides="1" tooltips="1" connect="1" arrows="1" fold="1" page="1" pageScale="1" pageWidth="827" pageHeight="1169" math="0" shadow="0">
      <root>
        <mxCell id="0" />
        <mxCell id="1" parent="0" />
        <mxCell id="AiLqDA74QCMFkK-5nruq-1" value="jiahui.regions" style="shape=table;startSize=30;container=1;collapsible=1;childLayout=tableLayout;fixedRows=1;rowLines=0;fontStyle=1;align=center;resizeLast=1;" parent="1" vertex="1">
          <mxGeometry x="548" y="580" width="180" height="100" as="geometry" />
        </mxCell>
        <mxCell id="AiLqDA74QCMFkK-5nruq-2" value="" style="shape=partialRectangle;collapsible=0;dropTarget=0;pointerEvents=0;fillColor=none;top=0;left=0;bottom=1;right=0;points=[[0,0.5],[1,0.5]];portConstraint=eastwest;" parent="AiLqDA74QCMFkK-5nruq-1" vertex="1">
          <mxGeometry y="30" width="180" height="30" as="geometry" />
        </mxCell>
        <mxCell id="AiLqDA74QCMFkK-5nruq-3" value="PK" style="shape=partialRectangle;connectable=0;fillColor=none;top=0;left=0;bottom=0;right=0;fontStyle=1;overflow=hidden;" parent="AiLqDA74QCMFkK-5nruq-2" vertex="1">
          <mxGeometry width="30" height="30" as="geometry" />
        </mxCell>
        <mxCell id="AiLqDA74QCMFkK-5nruq-4" value="region_id" style="shape=partialRectangle;connectable=0;fillColor=none;top=0;left=0;bottom=0;right=0;align=left;spacingLeft=6;fontStyle=1;overflow=hidden;" parent="AiLqDA74QCMFkK-5nruq-2" vertex="1">
          <mxGeometry x="30" width="150" height="30" as="geometry" />
        </mxCell>
        <mxCell id="AiLqDA74QCMFkK-5nruq-5" value="" style="shape=partialRectangle;collapsible=0;dropTarget=0;pointerEvents=0;fillColor=none;top=0;left=0;bottom=0;right=0;points=[[0,0.5],[1,0.5]];portConstraint=eastwest;" parent="AiLqDA74QCMFkK-5nruq-1" vertex="1">
          <mxGeometry y="60" width="180" height="30" as="geometry" />
        </mxCell>
        <mxCell id="AiLqDA74QCMFkK-5nruq-6" value="" style="shape=partialRectangle;connectable=0;fillColor=none;top=0;left=0;bottom=0;right=0;editable=1;overflow=hidden;" parent="AiLqDA74QCMFkK-5nruq-5" vertex="1">
          <mxGeometry width="30" height="30" as="geometry" />
        </mxCell>
        <mxCell id="AiLqDA74QCMFkK-5nruq-7" value="region_name" style="shape=partialRectangle;connectable=0;fillColor=none;top=0;left=0;bottom=0;right=0;align=left;spacingLeft=6;overflow=hidden;" parent="AiLqDA74QCMFkK-5nruq-5" vertex="1">
          <mxGeometry x="30" width="150" height="30" as="geometry" />
        </mxCell>
        <mxCell id="ExNAI3M1cGkK11rpZreg-1" value="jiahui.countries" style="shape=table;startSize=30;container=1;collapsible=1;childLayout=tableLayout;fixedRows=1;rowLines=0;fontStyle=1;align=center;resizeLast=1;strokeColor=#000000;" parent="1" vertex="1">
          <mxGeometry x="548" y="410" width="180" height="130" as="geometry" />
        </mxCell>
        <mxCell id="ExNAI3M1cGkK11rpZreg-2" value="" style="shape=partialRectangle;collapsible=0;dropTarget=0;pointerEvents=0;fillColor=none;top=0;left=0;bottom=1;right=0;points=[[0,0.5],[1,0.5]];portConstraint=eastwest;" parent="ExNAI3M1cGkK11rpZreg-1" vertex="1">
          <mxGeometry y="30" width="180" height="30" as="geometry" />
        </mxCell>
        <mxCell id="ExNAI3M1cGkK11rpZreg-3" value="PK" style="shape=partialRectangle;connectable=0;fillColor=none;top=0;left=0;bottom=0;right=0;fontStyle=1;overflow=hidden;" parent="ExNAI3M1cGkK11rpZreg-2" vertex="1">
          <mxGeometry width="30" height="30" as="geometry" />
        </mxCell>
        <mxCell id="ExNAI3M1cGkK11rpZreg-4" value="country_id" style="shape=partialRectangle;connectable=0;fillColor=none;top=0;left=0;bottom=0;right=0;align=left;spacingLeft=6;fontStyle=1;overflow=hidden;" parent="ExNAI3M1cGkK11rpZreg-2" vertex="1">
          <mxGeometry x="30" width="150" height="30" as="geometry" />
        </mxCell>
        <mxCell id="ExNAI3M1cGkK11rpZreg-5" value="" style="shape=partialRectangle;collapsible=0;dropTarget=0;pointerEvents=0;fillColor=none;top=0;left=0;bottom=0;right=0;points=[[0,0.5],[1,0.5]];portConstraint=eastwest;" parent="ExNAI3M1cGkK11rpZreg-1" vertex="1">
          <mxGeometry y="60" width="180" height="30" as="geometry" />
        </mxCell>
        <mxCell id="ExNAI3M1cGkK11rpZreg-6" value="" style="shape=partialRectangle;connectable=0;fillColor=none;top=0;left=0;bottom=0;right=0;editable=1;overflow=hidden;" parent="ExNAI3M1cGkK11rpZreg-5" vertex="1">
          <mxGeometry width="30" height="30" as="geometry" />
        </mxCell>
        <mxCell id="ExNAI3M1cGkK11rpZreg-7" value="country_name" style="shape=partialRectangle;connectable=0;fillColor=none;top=0;left=0;bottom=0;right=0;align=left;spacingLeft=6;overflow=hidden;" parent="ExNAI3M1cGkK11rpZreg-5" vertex="1">
          <mxGeometry x="30" width="150" height="30" as="geometry" />
        </mxCell>
        <mxCell id="ExNAI3M1cGkK11rpZreg-8" value="" style="shape=partialRectangle;collapsible=0;dropTarget=0;pointerEvents=0;fillColor=none;top=0;left=0;bottom=0;right=0;points=[[0,0.5],[1,0.5]];portConstraint=eastwest;" parent="ExNAI3M1cGkK11rpZreg-1" vertex="1">
          <mxGeometry y="90" width="180" height="30" as="geometry" />
        </mxCell>
        <mxCell id="ExNAI3M1cGkK11rpZreg-9" value="FK" style="shape=partialRectangle;connectable=0;fillColor=none;top=0;left=0;bottom=0;right=0;editable=1;overflow=hidden;" parent="ExNAI3M1cGkK11rpZreg-8" vertex="1">
          <mxGeometry width="30" height="30" as="geometry" />
        </mxCell>
        <mxCell id="ExNAI3M1cGkK11rpZreg-10" value="region_id" style="shape=partialRectangle;connectable=0;fillColor=none;top=0;left=0;bottom=0;right=0;align=left;spacingLeft=6;overflow=hidden;" parent="ExNAI3M1cGkK11rpZreg-8" vertex="1">
          <mxGeometry x="30" width="150" height="30" as="geometry" />
        </mxCell>
        <mxCell id="ExNAI3M1cGkK11rpZreg-14" value="" style="edgeStyle=entityRelationEdgeStyle;fontSize=12;html=1;endArrow=ERmany;" parent="1" target="ExNAI3M1cGkK11rpZreg-5" edge="1">
          <mxGeometry width="100" height="100" relative="1" as="geometry">
            <mxPoint x="728" y="620" as="sourcePoint" />
            <mxPoint x="828" y="520" as="targetPoint" />
          </mxGeometry>
        </mxCell>
        <mxCell id="ExNAI3M1cGkK11rpZreg-15" value="jiahui.job_history" style="shape=table;startSize=30;container=1;collapsible=1;childLayout=tableLayout;fixedRows=1;rowLines=0;fontStyle=1;align=center;resizeLast=1;" parent="1" vertex="1">
          <mxGeometry x="68" y="290" width="190" height="170" as="geometry" />
        </mxCell>
        <mxCell id="ExNAI3M1cGkK11rpZreg-16" value="" style="shape=partialRectangle;collapsible=0;dropTarget=0;pointerEvents=0;fillColor=none;top=0;left=0;bottom=0;right=0;points=[[0,0.5],[1,0.5]];portConstraint=eastwest;" parent="ExNAI3M1cGkK11rpZreg-15" vertex="1">
          <mxGeometry y="30" width="190" height="30" as="geometry" />
        </mxCell>
        <mxCell id="ExNAI3M1cGkK11rpZreg-17" value="PK1     FK" style="shape=partialRectangle;connectable=0;fillColor=none;top=0;left=0;bottom=0;right=0;fontStyle=1;overflow=hidden;" parent="ExNAI3M1cGkK11rpZreg-16" vertex="1">
          <mxGeometry width="82" height="30" as="geometry" />
        </mxCell>
        <mxCell id="ExNAI3M1cGkK11rpZreg-18" value="employee_id" style="shape=partialRectangle;connectable=0;fillColor=none;top=0;left=0;bottom=0;right=0;align=left;spacingLeft=6;fontStyle=1;overflow=hidden;" parent="ExNAI3M1cGkK11rpZreg-16" vertex="1">
          <mxGeometry x="82" width="108" height="30" as="geometry" />
        </mxCell>
        <mxCell id="ExNAI3M1cGkK11rpZreg-19" value="" style="shape=partialRectangle;collapsible=0;dropTarget=0;pointerEvents=0;fillColor=none;top=0;left=0;bottom=1;right=0;points=[[0,0.5],[1,0.5]];portConstraint=eastwest;" parent="ExNAI3M1cGkK11rpZreg-15" vertex="1">
          <mxGeometry y="60" width="190" height="40" as="geometry" />
        </mxCell>
        <mxCell id="ExNAI3M1cGkK11rpZreg-20" value="PK 2" style="shape=partialRectangle;connectable=0;fillColor=none;top=0;left=0;bottom=0;right=0;fontStyle=1;overflow=hidden;" parent="ExNAI3M1cGkK11rpZreg-19" vertex="1">
          <mxGeometry width="82" height="40" as="geometry" />
        </mxCell>
        <mxCell id="ExNAI3M1cGkK11rpZreg-21" value="start_date" style="shape=partialRectangle;connectable=0;fillColor=none;top=0;left=0;bottom=0;right=0;align=left;spacingLeft=6;fontStyle=1;overflow=hidden;" parent="ExNAI3M1cGkK11rpZreg-19" vertex="1">
          <mxGeometry x="82" width="108" height="40" as="geometry" />
        </mxCell>
        <mxCell id="ExNAI3M1cGkK11rpZreg-22" value="" style="shape=partialRectangle;collapsible=0;dropTarget=0;pointerEvents=0;fillColor=none;top=0;left=0;bottom=0;right=0;points=[[0,0.5],[1,0.5]];portConstraint=eastwest;" parent="ExNAI3M1cGkK11rpZreg-15" vertex="1">
          <mxGeometry y="100" width="190" height="20" as="geometry" />
        </mxCell>
        <mxCell id="ExNAI3M1cGkK11rpZreg-23" value="" style="shape=partialRectangle;connectable=0;fillColor=none;top=0;left=0;bottom=0;right=0;editable=1;overflow=hidden;" parent="ExNAI3M1cGkK11rpZreg-22" vertex="1">
          <mxGeometry width="82" height="20" as="geometry" />
        </mxCell>
        <mxCell id="ExNAI3M1cGkK11rpZreg-24" value="end_date" style="shape=partialRectangle;connectable=0;fillColor=none;top=0;left=0;bottom=0;right=0;align=left;spacingLeft=6;overflow=hidden;" parent="ExNAI3M1cGkK11rpZreg-22" vertex="1">
          <mxGeometry x="82" width="108" height="20" as="geometry" />
        </mxCell>
        <mxCell id="ExNAI3M1cGkK11rpZreg-25" value="" style="shape=partialRectangle;collapsible=0;dropTarget=0;pointerEvents=0;fillColor=none;top=0;left=0;bottom=0;right=0;points=[[0,0.5],[1,0.5]];portConstraint=eastwest;" parent="ExNAI3M1cGkK11rpZreg-15" vertex="1">
          <mxGeometry y="120" width="190" height="20" as="geometry" />
        </mxCell>
        <mxCell id="ExNAI3M1cGkK11rpZreg-26" value="FK" style="shape=partialRectangle;connectable=0;fillColor=none;top=0;left=0;bottom=0;right=0;editable=1;overflow=hidden;" parent="ExNAI3M1cGkK11rpZreg-25" vertex="1">
          <mxGeometry width="82" height="20" as="geometry" />
        </mxCell>
        <mxCell id="ExNAI3M1cGkK11rpZreg-27" value="job_id" style="shape=partialRectangle;connectable=0;fillColor=none;top=0;left=0;bottom=0;right=0;align=left;spacingLeft=6;overflow=hidden;" parent="ExNAI3M1cGkK11rpZreg-25" vertex="1">
          <mxGeometry x="82" width="108" height="20" as="geometry" />
        </mxCell>
        <mxCell id="ExNAI3M1cGkK11rpZreg-29" value="department_id" style="text;html=1;align=center;verticalAlign=middle;resizable=0;points=[];autosize=1;" parent="1" vertex="1">
          <mxGeometry x="150" y="430" width="90" height="20" as="geometry" />
        </mxCell>
        <mxCell id="ExNAI3M1cGkK11rpZreg-30" value="jiahui.jobs" style="shape=table;startSize=30;container=1;collapsible=1;childLayout=tableLayout;fixedRows=1;rowLines=0;fontStyle=1;align=center;resizeLast=1;" parent="1" vertex="1">
          <mxGeometry x="73" y="520" width="180" height="150" as="geometry" />
        </mxCell>
        <mxCell id="ExNAI3M1cGkK11rpZreg-31" value="" style="shape=partialRectangle;collapsible=0;dropTarget=0;pointerEvents=0;fillColor=none;top=0;left=0;bottom=1;right=0;points=[[0,0.5],[1,0.5]];portConstraint=eastwest;" parent="ExNAI3M1cGkK11rpZreg-30" vertex="1">
          <mxGeometry y="30" width="180" height="30" as="geometry" />
        </mxCell>
        <mxCell id="ExNAI3M1cGkK11rpZreg-32" value="PK" style="shape=partialRectangle;connectable=0;fillColor=none;top=0;left=0;bottom=0;right=0;fontStyle=1;overflow=hidden;" parent="ExNAI3M1cGkK11rpZreg-31" vertex="1">
          <mxGeometry width="30" height="30" as="geometry" />
        </mxCell>
        <mxCell id="ExNAI3M1cGkK11rpZreg-33" value="job_id" style="shape=partialRectangle;connectable=0;fillColor=none;top=0;left=0;bottom=0;right=0;align=left;spacingLeft=6;fontStyle=1;overflow=hidden;" parent="ExNAI3M1cGkK11rpZreg-31" vertex="1">
          <mxGeometry x="30" width="150" height="30" as="geometry" />
        </mxCell>
        <mxCell id="ExNAI3M1cGkK11rpZreg-34" value="" style="shape=partialRectangle;collapsible=0;dropTarget=0;pointerEvents=0;fillColor=none;top=0;left=0;bottom=0;right=0;points=[[0,0.5],[1,0.5]];portConstraint=eastwest;" parent="ExNAI3M1cGkK11rpZreg-30" vertex="1">
          <mxGeometry y="60" width="180" height="30" as="geometry" />
        </mxCell>
        <mxCell id="ExNAI3M1cGkK11rpZreg-35" value="" style="shape=partialRectangle;connectable=0;fillColor=none;top=0;left=0;bottom=0;right=0;editable=1;overflow=hidden;" parent="ExNAI3M1cGkK11rpZreg-34" vertex="1">
          <mxGeometry width="30" height="30" as="geometry" />
        </mxCell>
        <mxCell id="ExNAI3M1cGkK11rpZreg-36" value="job_title" style="shape=partialRectangle;connectable=0;fillColor=none;top=0;left=0;bottom=0;right=0;align=left;spacingLeft=6;overflow=hidden;" parent="ExNAI3M1cGkK11rpZreg-34" vertex="1">
          <mxGeometry x="30" width="150" height="30" as="geometry" />
        </mxCell>
        <mxCell id="ExNAI3M1cGkK11rpZreg-37" value="" style="shape=partialRectangle;collapsible=0;dropTarget=0;pointerEvents=0;fillColor=none;top=0;left=0;bottom=0;right=0;points=[[0,0.5],[1,0.5]];portConstraint=eastwest;" parent="ExNAI3M1cGkK11rpZreg-30" vertex="1">
          <mxGeometry y="90" width="180" height="30" as="geometry" />
        </mxCell>
        <mxCell id="ExNAI3M1cGkK11rpZreg-38" value="" style="shape=partialRectangle;connectable=0;fillColor=none;top=0;left=0;bottom=0;right=0;editable=1;overflow=hidden;" parent="ExNAI3M1cGkK11rpZreg-37" vertex="1">
          <mxGeometry width="30" height="30" as="geometry" />
        </mxCell>
        <mxCell id="ExNAI3M1cGkK11rpZreg-39" value="min_salary" style="shape=partialRectangle;connectable=0;fillColor=none;top=0;left=0;bottom=0;right=0;align=left;spacingLeft=6;overflow=hidden;" parent="ExNAI3M1cGkK11rpZreg-37" vertex="1">
          <mxGeometry x="30" width="150" height="30" as="geometry" />
        </mxCell>
        <mxCell id="ExNAI3M1cGkK11rpZreg-40" value="" style="shape=partialRectangle;collapsible=0;dropTarget=0;pointerEvents=0;fillColor=none;top=0;left=0;bottom=0;right=0;points=[[0,0.5],[1,0.5]];portConstraint=eastwest;" parent="ExNAI3M1cGkK11rpZreg-30" vertex="1">
          <mxGeometry y="120" width="180" height="30" as="geometry" />
        </mxCell>
        <mxCell id="ExNAI3M1cGkK11rpZreg-41" value="" style="shape=partialRectangle;connectable=0;fillColor=none;top=0;left=0;bottom=0;right=0;editable=1;overflow=hidden;" parent="ExNAI3M1cGkK11rpZreg-40" vertex="1">
          <mxGeometry width="30" height="30" as="geometry" />
        </mxCell>
        <mxCell id="ExNAI3M1cGkK11rpZreg-42" value="max_salary" style="shape=partialRectangle;connectable=0;fillColor=none;top=0;left=0;bottom=0;right=0;align=left;spacingLeft=6;overflow=hidden;" parent="ExNAI3M1cGkK11rpZreg-40" vertex="1">
          <mxGeometry x="30" width="150" height="30" as="geometry" />
        </mxCell>
        <mxCell id="ExNAI3M1cGkK11rpZreg-48" value="jiahui.departments" style="shape=table;startSize=30;container=1;collapsible=1;childLayout=tableLayout;fixedRows=1;rowLines=0;fontStyle=1;align=center;resizeLast=1;strokeColor=#000000;" parent="1" vertex="1">
          <mxGeometry x="318" y="230" width="180" height="170" as="geometry" />
        </mxCell>
        <mxCell id="ExNAI3M1cGkK11rpZreg-49" value="" style="shape=partialRectangle;collapsible=0;dropTarget=0;pointerEvents=0;fillColor=none;top=0;left=0;bottom=1;right=0;points=[[0,0.5],[1,0.5]];portConstraint=eastwest;" parent="ExNAI3M1cGkK11rpZreg-48" vertex="1">
          <mxGeometry y="30" width="180" height="30" as="geometry" />
        </mxCell>
        <mxCell id="ExNAI3M1cGkK11rpZreg-50" value="PK" style="shape=partialRectangle;connectable=0;fillColor=none;top=0;left=0;bottom=0;right=0;fontStyle=1;overflow=hidden;" parent="ExNAI3M1cGkK11rpZreg-49" vertex="1">
          <mxGeometry width="30" height="30" as="geometry" />
        </mxCell>
        <mxCell id="ExNAI3M1cGkK11rpZreg-51" value="department_id" style="shape=partialRectangle;connectable=0;fillColor=none;top=0;left=0;bottom=0;right=0;align=left;spacingLeft=6;fontStyle=1;overflow=hidden;" parent="ExNAI3M1cGkK11rpZreg-49" vertex="1">
          <mxGeometry x="30" width="150" height="30" as="geometry" />
        </mxCell>
        <mxCell id="ExNAI3M1cGkK11rpZreg-52" value="" style="shape=partialRectangle;collapsible=0;dropTarget=0;pointerEvents=0;fillColor=none;top=0;left=0;bottom=0;right=0;points=[[0,0.5],[1,0.5]];portConstraint=eastwest;" parent="ExNAI3M1cGkK11rpZreg-48" vertex="1">
          <mxGeometry y="60" width="180" height="30" as="geometry" />
        </mxCell>
        <mxCell id="ExNAI3M1cGkK11rpZreg-53" value="" style="shape=partialRectangle;connectable=0;fillColor=none;top=0;left=0;bottom=0;right=0;editable=1;overflow=hidden;" parent="ExNAI3M1cGkK11rpZreg-52" vertex="1">
          <mxGeometry width="30" height="30" as="geometry" />
        </mxCell>
        <mxCell id="ExNAI3M1cGkK11rpZreg-54" value="departemanet_name" style="shape=partialRectangle;connectable=0;fillColor=none;top=0;left=0;bottom=0;right=0;align=left;spacingLeft=6;overflow=hidden;" parent="ExNAI3M1cGkK11rpZreg-52" vertex="1">
          <mxGeometry x="30" width="150" height="30" as="geometry" />
        </mxCell>
        <mxCell id="ExNAI3M1cGkK11rpZreg-55" value="" style="shape=partialRectangle;collapsible=0;dropTarget=0;pointerEvents=0;fillColor=none;top=0;left=0;bottom=0;right=0;points=[[0,0.5],[1,0.5]];portConstraint=eastwest;" parent="ExNAI3M1cGkK11rpZreg-48" vertex="1">
          <mxGeometry y="90" width="180" height="30" as="geometry" />
        </mxCell>
        <mxCell id="ExNAI3M1cGkK11rpZreg-56" value="FK1" style="shape=partialRectangle;connectable=0;fillColor=none;top=0;left=0;bottom=0;right=0;editable=1;overflow=hidden;" parent="ExNAI3M1cGkK11rpZreg-55" vertex="1">
          <mxGeometry width="30" height="30" as="geometry" />
        </mxCell>
        <mxCell id="ExNAI3M1cGkK11rpZreg-57" value="manager_id" style="shape=partialRectangle;connectable=0;fillColor=none;top=0;left=0;bottom=0;right=0;align=left;spacingLeft=6;overflow=hidden;" parent="ExNAI3M1cGkK11rpZreg-55" vertex="1">
          <mxGeometry x="30" width="150" height="30" as="geometry" />
        </mxCell>
        <mxCell id="ExNAI3M1cGkK11rpZreg-58" value="" style="shape=partialRectangle;collapsible=0;dropTarget=0;pointerEvents=0;fillColor=none;top=0;left=0;bottom=0;right=0;points=[[0,0.5],[1,0.5]];portConstraint=eastwest;" parent="ExNAI3M1cGkK11rpZreg-48" vertex="1">
          <mxGeometry y="120" width="180" height="30" as="geometry" />
        </mxCell>
        <mxCell id="ExNAI3M1cGkK11rpZreg-59" value="FK2" style="shape=partialRectangle;connectable=0;fillColor=none;top=0;left=0;bottom=0;right=0;editable=1;overflow=hidden;" parent="ExNAI3M1cGkK11rpZreg-58" vertex="1">
          <mxGeometry width="30" height="30" as="geometry" />
        </mxCell>
        <mxCell id="ExNAI3M1cGkK11rpZreg-60" value="location_id" style="shape=partialRectangle;connectable=0;fillColor=none;top=0;left=0;bottom=0;right=0;align=left;spacingLeft=6;overflow=hidden;" parent="ExNAI3M1cGkK11rpZreg-58" vertex="1">
          <mxGeometry x="30" width="150" height="30" as="geometry" />
        </mxCell>
        <mxCell id="ExNAI3M1cGkK11rpZreg-64" value="" style="fontSize=12;html=1;endArrow=ERmany;exitX=0.5;exitY=0;exitDx=0;exitDy=0;" parent="1" source="ExNAI3M1cGkK11rpZreg-30" edge="1">
          <mxGeometry width="100" height="100" relative="1" as="geometry">
            <mxPoint x="163" y="480" as="sourcePoint" />
            <mxPoint x="163" y="460" as="targetPoint" />
          </mxGeometry>
        </mxCell>
        <mxCell id="ExNAI3M1cGkK11rpZreg-66" value="jiahui.employees" style="shape=table;startSize=30;container=1;collapsible=1;childLayout=tableLayout;fixedRows=1;rowLines=0;fontStyle=1;align=center;resizeLast=1;strokeColor=#000000;" parent="1" vertex="1">
          <mxGeometry x="310" y="460" width="188" height="270" as="geometry">
            <mxRectangle x="350" y="460" width="130" height="30" as="alternateBounds" />
          </mxGeometry>
        </mxCell>
        <mxCell id="ExNAI3M1cGkK11rpZreg-67" value="" style="shape=partialRectangle;collapsible=0;dropTarget=0;pointerEvents=0;fillColor=none;top=0;left=0;bottom=1;right=0;points=[[0,0.5],[1,0.5]];portConstraint=eastwest;" parent="ExNAI3M1cGkK11rpZreg-66" vertex="1">
          <mxGeometry y="30" width="188" height="30" as="geometry" />
        </mxCell>
        <mxCell id="ExNAI3M1cGkK11rpZreg-68" value="PK" style="shape=partialRectangle;connectable=0;fillColor=none;top=0;left=0;bottom=0;right=0;fontStyle=1;overflow=hidden;" parent="ExNAI3M1cGkK11rpZreg-67" vertex="1">
          <mxGeometry width="30" height="30" as="geometry" />
        </mxCell>
        <mxCell id="ExNAI3M1cGkK11rpZreg-69" value="employee_id" style="shape=partialRectangle;connectable=0;fillColor=none;top=0;left=0;bottom=0;right=0;align=left;spacingLeft=6;fontStyle=1;overflow=hidden;fontFamily=Helvetica;" parent="ExNAI3M1cGkK11rpZreg-67" vertex="1">
          <mxGeometry x="30" width="158" height="30" as="geometry" />
        </mxCell>
        <mxCell id="ExNAI3M1cGkK11rpZreg-70" value="" style="shape=partialRectangle;collapsible=0;dropTarget=0;pointerEvents=0;fillColor=none;top=0;left=0;bottom=0;right=0;points=[[0,0.5],[1,0.5]];portConstraint=eastwest;" parent="ExNAI3M1cGkK11rpZreg-66" vertex="1">
          <mxGeometry y="60" width="188" height="20" as="geometry" />
        </mxCell>
        <mxCell id="ExNAI3M1cGkK11rpZreg-71" value="" style="shape=partialRectangle;connectable=0;fillColor=none;top=0;left=0;bottom=0;right=0;editable=1;overflow=hidden;" parent="ExNAI3M1cGkK11rpZreg-70" vertex="1">
          <mxGeometry width="30" height="20" as="geometry" />
        </mxCell>
        <mxCell id="ExNAI3M1cGkK11rpZreg-72" value="first_name" style="shape=partialRectangle;connectable=0;fillColor=none;top=0;left=0;bottom=0;right=0;align=left;spacingLeft=6;overflow=hidden;" parent="ExNAI3M1cGkK11rpZreg-70" vertex="1">
          <mxGeometry x="30" width="158" height="20" as="geometry" />
        </mxCell>
        <mxCell id="ExNAI3M1cGkK11rpZreg-73" value="" style="shape=partialRectangle;collapsible=0;dropTarget=0;pointerEvents=0;fillColor=none;top=0;left=0;bottom=0;right=0;points=[[0,0.5],[1,0.5]];portConstraint=eastwest;" parent="ExNAI3M1cGkK11rpZreg-66" vertex="1">
          <mxGeometry y="80" width="188" height="20" as="geometry" />
        </mxCell>
        <mxCell id="ExNAI3M1cGkK11rpZreg-74" value="" style="shape=partialRectangle;connectable=0;fillColor=none;top=0;left=0;bottom=0;right=0;editable=1;overflow=hidden;" parent="ExNAI3M1cGkK11rpZreg-73" vertex="1">
          <mxGeometry width="30" height="20" as="geometry" />
        </mxCell>
        <mxCell id="ExNAI3M1cGkK11rpZreg-75" value="last_name" style="shape=partialRectangle;connectable=0;fillColor=none;top=0;left=0;bottom=0;right=0;align=left;spacingLeft=6;overflow=hidden;" parent="ExNAI3M1cGkK11rpZreg-73" vertex="1">
          <mxGeometry x="30" width="158" height="20" as="geometry" />
        </mxCell>
        <mxCell id="ExNAI3M1cGkK11rpZreg-76" value="" style="shape=partialRectangle;collapsible=0;dropTarget=0;pointerEvents=0;fillColor=none;top=0;left=0;bottom=0;right=0;points=[[0,0.5],[1,0.5]];portConstraint=eastwest;" parent="ExNAI3M1cGkK11rpZreg-66" vertex="1">
          <mxGeometry y="100" width="188" height="20" as="geometry" />
        </mxCell>
        <mxCell id="ExNAI3M1cGkK11rpZreg-77" value="" style="shape=partialRectangle;connectable=0;fillColor=none;top=0;left=0;bottom=0;right=0;editable=1;overflow=hidden;" parent="ExNAI3M1cGkK11rpZreg-76" vertex="1">
          <mxGeometry width="30" height="20" as="geometry" />
        </mxCell>
        <mxCell id="ExNAI3M1cGkK11rpZreg-78" value="emali" style="shape=partialRectangle;connectable=0;fillColor=none;top=0;left=0;bottom=0;right=0;align=left;spacingLeft=6;overflow=hidden;" parent="ExNAI3M1cGkK11rpZreg-76" vertex="1">
          <mxGeometry x="30" width="158" height="20" as="geometry" />
        </mxCell>
        <mxCell id="ExNAI3M1cGkK11rpZreg-93" value="phone_number" style="text;html=1;align=center;verticalAlign=middle;resizable=0;points=[];autosize=1;fontFamily=Helvetica;fontColor=#000000;" parent="1" vertex="1">
          <mxGeometry x="348" y="580" width="100" height="20" as="geometry" />
        </mxCell>
        <mxCell id="ExNAI3M1cGkK11rpZreg-95" value="hire_date" style="text;html=1;align=center;verticalAlign=middle;resizable=0;points=[];autosize=1;fontFamily=Helvetica;fontColor=#000000;" parent="1" vertex="1">
          <mxGeometry x="348" y="600" width="70" height="20" as="geometry" />
        </mxCell>
        <mxCell id="ExNAI3M1cGkK11rpZreg-96" value="job_id" style="text;html=1;align=center;verticalAlign=middle;resizable=0;points=[];autosize=1;fontFamily=Helvetica;fontColor=#000000;" parent="1" vertex="1">
          <mxGeometry x="348" y="620" width="50" height="20" as="geometry" />
        </mxCell>
        <mxCell id="ExNAI3M1cGkK11rpZreg-97" value="salary" style="text;html=1;align=center;verticalAlign=middle;resizable=0;points=[];autosize=1;fontFamily=Helvetica;fontColor=#000000;" parent="1" vertex="1">
          <mxGeometry x="348" y="640" width="50" height="20" as="geometry" />
        </mxCell>
        <mxCell id="ExNAI3M1cGkK11rpZreg-98" value="commission_pct" style="text;html=1;align=center;verticalAlign=middle;resizable=0;points=[];autosize=1;fontFamily=Helvetica;fontColor=#000000;" parent="1" vertex="1">
          <mxGeometry x="348" y="660" width="100" height="20" as="geometry" />
        </mxCell>
        <mxCell id="ExNAI3M1cGkK11rpZreg-99" value="manager_id" style="text;html=1;align=center;verticalAlign=middle;resizable=0;points=[];autosize=1;fontFamily=Helvetica;fontColor=#000000;" parent="1" vertex="1">
          <mxGeometry x="348" y="680" width="80" height="20" as="geometry" />
        </mxCell>
        <mxCell id="ExNAI3M1cGkK11rpZreg-100" value="departement_id" style="text;html=1;align=center;verticalAlign=middle;resizable=0;points=[];autosize=1;fontFamily=Helvetica;fontColor=#000000;" parent="1" vertex="1">
          <mxGeometry x="348" y="700" width="100" height="20" as="geometry" />
        </mxCell>
        <mxCell id="ExNAI3M1cGkK11rpZreg-108" value="jiahui.locations" style="shape=table;startSize=30;container=1;collapsible=1;childLayout=tableLayout;fixedRows=1;rowLines=0;fontStyle=1;align=center;resizeLast=1;strokeColor=#000000;fontFamily=Helvetica;fontColor=#000000;" parent="1" vertex="1">
          <mxGeometry x="548" y="200" width="180" height="170" as="geometry" />
        </mxCell>
        <mxCell id="ExNAI3M1cGkK11rpZreg-109" value="" style="shape=partialRectangle;collapsible=0;dropTarget=0;pointerEvents=0;fillColor=none;top=0;left=0;bottom=1;right=0;points=[[0,0.5],[1,0.5]];portConstraint=eastwest;" parent="ExNAI3M1cGkK11rpZreg-108" vertex="1">
          <mxGeometry y="30" width="180" height="30" as="geometry" />
        </mxCell>
        <mxCell id="ExNAI3M1cGkK11rpZreg-110" value="PK" style="shape=partialRectangle;connectable=0;fillColor=none;top=0;left=0;bottom=0;right=0;fontStyle=1;overflow=hidden;" parent="ExNAI3M1cGkK11rpZreg-109" vertex="1">
          <mxGeometry width="30" height="30" as="geometry" />
        </mxCell>
        <mxCell id="ExNAI3M1cGkK11rpZreg-111" value="location_id" style="shape=partialRectangle;connectable=0;fillColor=none;top=0;left=0;bottom=0;right=0;align=left;spacingLeft=6;fontStyle=1;overflow=hidden;" parent="ExNAI3M1cGkK11rpZreg-109" vertex="1">
          <mxGeometry x="30" width="150" height="30" as="geometry" />
        </mxCell>
        <mxCell id="ExNAI3M1cGkK11rpZreg-112" value="" style="shape=partialRectangle;collapsible=0;dropTarget=0;pointerEvents=0;fillColor=none;top=0;left=0;bottom=0;right=0;points=[[0,0.5],[1,0.5]];portConstraint=eastwest;" parent="ExNAI3M1cGkK11rpZreg-108" vertex="1">
          <mxGeometry y="60" width="180" height="30" as="geometry" />
        </mxCell>
        <mxCell id="ExNAI3M1cGkK11rpZreg-113" value="" style="shape=partialRectangle;connectable=0;fillColor=none;top=0;left=0;bottom=0;right=0;editable=1;overflow=hidden;" parent="ExNAI3M1cGkK11rpZreg-112" vertex="1">
          <mxGeometry width="30" height="30" as="geometry" />
        </mxCell>
        <mxCell id="ExNAI3M1cGkK11rpZreg-114" value="street_address" style="shape=partialRectangle;connectable=0;fillColor=none;top=0;left=0;bottom=0;right=0;align=left;spacingLeft=6;overflow=hidden;" parent="ExNAI3M1cGkK11rpZreg-112" vertex="1">
          <mxGeometry x="30" width="150" height="30" as="geometry" />
        </mxCell>
        <mxCell id="ExNAI3M1cGkK11rpZreg-115" value="" style="shape=partialRectangle;collapsible=0;dropTarget=0;pointerEvents=0;fillColor=none;top=0;left=0;bottom=0;right=0;points=[[0,0.5],[1,0.5]];portConstraint=eastwest;" parent="ExNAI3M1cGkK11rpZreg-108" vertex="1">
          <mxGeometry y="90" width="180" height="30" as="geometry" />
        </mxCell>
        <mxCell id="ExNAI3M1cGkK11rpZreg-116" value="" style="shape=partialRectangle;connectable=0;fillColor=none;top=0;left=0;bottom=0;right=0;editable=1;overflow=hidden;" parent="ExNAI3M1cGkK11rpZreg-115" vertex="1">
          <mxGeometry width="30" height="30" as="geometry" />
        </mxCell>
        <mxCell id="ExNAI3M1cGkK11rpZreg-117" value="postal_code" style="shape=partialRectangle;connectable=0;fillColor=none;top=0;left=0;bottom=0;right=0;align=left;spacingLeft=6;overflow=hidden;" parent="ExNAI3M1cGkK11rpZreg-115" vertex="1">
          <mxGeometry x="30" width="150" height="30" as="geometry" />
        </mxCell>
        <mxCell id="ExNAI3M1cGkK11rpZreg-118" value="" style="shape=partialRectangle;collapsible=0;dropTarget=0;pointerEvents=0;fillColor=none;top=0;left=0;bottom=0;right=0;points=[[0,0.5],[1,0.5]];portConstraint=eastwest;" parent="ExNAI3M1cGkK11rpZreg-108" vertex="1">
          <mxGeometry y="120" width="180" height="30" as="geometry" />
        </mxCell>
        <mxCell id="ExNAI3M1cGkK11rpZreg-119" value="" style="shape=partialRectangle;connectable=0;fillColor=none;top=0;left=0;bottom=0;right=0;editable=1;overflow=hidden;" parent="ExNAI3M1cGkK11rpZreg-118" vertex="1">
          <mxGeometry width="30" height="30" as="geometry" />
        </mxCell>
        <mxCell id="ExNAI3M1cGkK11rpZreg-120" value="city" style="shape=partialRectangle;connectable=0;fillColor=none;top=0;left=0;bottom=0;right=0;align=left;spacingLeft=6;overflow=hidden;" parent="ExNAI3M1cGkK11rpZreg-118" vertex="1">
          <mxGeometry x="30" width="150" height="30" as="geometry" />
        </mxCell>
        <mxCell id="ExNAI3M1cGkK11rpZreg-121" value="" style="shape=partialRectangle;collapsible=0;dropTarget=0;pointerEvents=0;fillColor=none;top=0;left=0;bottom=0;right=0;points=[[0,0.5],[1,0.5]];portConstraint=eastwest;" parent="1" vertex="1">
          <mxGeometry x="548" y="340" width="180" height="30" as="geometry" />
        </mxCell>
        <mxCell id="ExNAI3M1cGkK11rpZreg-122" value="FK" style="shape=partialRectangle;connectable=0;fillColor=none;top=0;left=0;bottom=0;right=0;editable=1;overflow=hidden;" parent="ExNAI3M1cGkK11rpZreg-121" vertex="1">
          <mxGeometry width="30" height="30" as="geometry" />
        </mxCell>
        <mxCell id="ExNAI3M1cGkK11rpZreg-123" value="country_id" style="shape=partialRectangle;connectable=0;fillColor=none;top=0;left=0;bottom=0;right=0;align=left;spacingLeft=6;overflow=hidden;" parent="ExNAI3M1cGkK11rpZreg-121" vertex="1">
          <mxGeometry x="30" width="150" height="30" as="geometry" />
        </mxCell>
        <mxCell id="ExNAI3M1cGkK11rpZreg-125" value="" style="edgeStyle=orthogonalEdgeStyle;fontSize=12;html=1;endArrow=ERmany;elbow=vertical;" parent="1" edge="1">
          <mxGeometry width="100" height="100" relative="1" as="geometry">
            <mxPoint x="728" y="432" as="sourcePoint" />
            <mxPoint x="728" y="318" as="targetPoint" />
            <Array as="points">
              <mxPoint x="758" y="432" />
              <mxPoint x="758" y="318" />
            </Array>
          </mxGeometry>
        </mxCell>
        <mxCell id="ExNAI3M1cGkK11rpZreg-126" value="" style="fontSize=12;html=1;endArrow=ERmany;entryX=0.5;entryY=0;entryDx=0;entryDy=0;" parent="1" target="ExNAI3M1cGkK11rpZreg-66" edge="1">
          <mxGeometry width="100" height="100" relative="1" as="geometry">
            <mxPoint x="404" y="400" as="sourcePoint" />
            <mxPoint x="453" y="450" as="targetPoint" />
            <Array as="points" />
          </mxGeometry>
        </mxCell>
        <mxCell id="ExNAI3M1cGkK11rpZreg-128" value="" style="fontSize=12;html=1;endArrow=ERmany;entryX=0;entryY=0.5;entryDx=0;entryDy=0;exitX=1;exitY=0.5;exitDx=0;exitDy=0;" parent="1" source="ExNAI3M1cGkK11rpZreg-34" target="ExNAI3M1cGkK11rpZreg-66" edge="1">
          <mxGeometry width="100" height="100" relative="1" as="geometry">
            <mxPoint x="253" y="600" as="sourcePoint" />
            <mxPoint x="353" y="500" as="targetPoint" />
          </mxGeometry>
        </mxCell>
        <mxCell id="ExNAI3M1cGkK11rpZreg-129" value="" style="edgeStyle=elbowEdgeStyle;fontSize=12;html=1;endArrow=ERmany;elbow=vertical;" parent="1" source="ExNAI3M1cGkK11rpZreg-108" edge="1">
          <mxGeometry width="100" height="100" relative="1" as="geometry">
            <mxPoint x="625" y="195" as="sourcePoint" />
            <mxPoint x="426" y="230" as="targetPoint" />
            <Array as="points">
              <mxPoint x="488" y="170" />
              <mxPoint x="518" y="150" />
            </Array>
          </mxGeometry>
        </mxCell>
        <mxCell id="ExNAI3M1cGkK11rpZreg-131" value="" style="edgeStyle=elbowEdgeStyle;fontSize=12;html=1;endArrow=ERmany;exitX=0;exitY=0.5;exitDx=0;exitDy=0;entryX=1;entryY=0.5;entryDx=0;entryDy=0;" parent="1" source="ExNAI3M1cGkK11rpZreg-73" target="ExNAI3M1cGkK11rpZreg-25" edge="1">
          <mxGeometry width="100" height="100" relative="1" as="geometry">
            <mxPoint x="338" y="450" as="sourcePoint" />
            <mxPoint x="260" y="370" as="targetPoint" />
            <Array as="points">
              <mxPoint x="278" y="410" />
            </Array>
          </mxGeometry>
        </mxCell>
        <mxCell id="ExNAI3M1cGkK11rpZreg-132" value="" style="edgeStyle=elbowEdgeStyle;fontSize=12;html=1;endArrow=ERmany;elbow=vertical;" parent="1" edge="1">
          <mxGeometry width="100" height="100" relative="1" as="geometry">
            <mxPoint x="318" y="250" as="sourcePoint" />
            <mxPoint x="151" y="290" as="targetPoint" />
            <Array as="points">
              <mxPoint x="231" y="250" />
              <mxPoint x="243" y="210" />
            </Array>
          </mxGeometry>
        </mxCell>
        <mxCell id="ExNAI3M1cGkK11rpZreg-133" value="" style="edgeStyle=orthogonalEdgeStyle;fontSize=12;html=1;endArrow=ERmany;" parent="1" edge="1">
          <mxGeometry width="100" height="100" relative="1" as="geometry">
            <mxPoint x="498" y="610" as="sourcePoint" />
            <mxPoint x="498" y="510" as="targetPoint" />
            <Array as="points">
              <mxPoint x="528" y="610" />
              <mxPoint x="528" y="510" />
              <mxPoint x="498" y="510" />
            </Array>
          </mxGeometry>
        </mxCell>
        <mxCell id="ExNAI3M1cGkK11rpZreg-134" value="FK 1" style="text;html=1;align=center;verticalAlign=middle;resizable=0;points=[];autosize=1;fontFamily=Helvetica;fontColor=#000000;" parent="1" vertex="1">
          <mxGeometry x="305" y="620" width="40" height="20" as="geometry" />
        </mxCell>
        <mxCell id="ExNAI3M1cGkK11rpZreg-135" value="FK 3" style="text;html=1;align=center;verticalAlign=middle;resizable=0;points=[];autosize=1;fontFamily=Helvetica;fontColor=#000000;" parent="1" vertex="1">
          <mxGeometry x="305" y="700" width="40" height="20" as="geometry" />
        </mxCell>
        <mxCell id="2g3uFjOj2LaaSkGKhWN8-1" value="FK" style="text;html=1;align=center;verticalAlign=middle;resizable=0;points=[];autosize=1;" parent="1" vertex="1">
          <mxGeometry x="94" y="430" width="30" height="20" as="geometry" />
        </mxCell>
        <mxCell id="2g3uFjOj2LaaSkGKhWN8-2" value="FK2" style="text;html=1;align=center;verticalAlign=middle;resizable=0;points=[];autosize=1;" parent="1" vertex="1">
          <mxGeometry x="304" y="680" width="40" height="20" as="geometry" />
        </mxCell>
        <mxCell id="tXouBJ_ux8iUPA1BDJSq-1" value="" style="fontSize=12;html=1;endArrow=ERone;endFill=1;exitX=0.745;exitY=0;exitDx=0;exitDy=0;exitPerimeter=0;" edge="1" parent="1" source="ExNAI3M1cGkK11rpZreg-66">
          <mxGeometry width="100" height="100" relative="1" as="geometry">
            <mxPoint x="450" y="455" as="sourcePoint" />
            <mxPoint x="450" y="400" as="targetPoint" />
          </mxGeometry>
        </mxCell>
      </root>
    </mxGraphModel>
  </diagram>
</mxfile>
